<?xml version="1.0" encoding="utf-8"?>
<svg xmlns="http://www.w3.org/2000/svg" height="48" width="48" viewBox="0 0 48 48">
  <g>
    <ellipse cy="24" cx="24" ry="24" rx="24" fill="#567DD0" />
    <path id="path1" transform="rotate(0,24,24) translate(8,11.9064966154073) scale(0.999999874221077,0.999999874221077)  " fill="#FCFCFC" d="M4.2681584,11.131008L7.2100513,15.21101C7.5340393,15.661009 7.433043,16.288009 6.9830596,16.613009 6.5330758,16.93801 5.9070988,16.835009 5.5801105,16.38601L3.3501921,13.292009C2.091238,13.671009,2.0102415,14.800009,2.0082407,15.047009L2.0082407,20.16901 8.0340211,20.16901C8.5890008,20.16901 9.0379844,20.61901 9.0379843,21.174011 9.0379844,21.729011 8.5890008,22.17801 8.0340211,22.17801L0.00031471252,22.17801 0.00031471252,15.051009C-0.017684937,13.856009,0.73028755,11.489008,3.6911798,11.188008z M7.5419919,6.0879967C6.6139941,6.0879967 5.8599963,6.9989996 5.8599963,8.1180034 5.8599963,9.2370071 6.6139941,10.14801 7.5419919,10.14801 8.4699893,10.14801 9.2239874,9.2370071 9.2239875,8.1180034 9.2239874,6.9989996 8.4699893,6.0879967 7.5419919,6.0879967z M29.166999,5.6220047L18.802024,17.031003 14.666043,12.031003C12.220002,12.551022,12.056,14.780026,12.050019,14.880002L12.052033,22.178007 25.107984,22.178007 25.107984,14.016018 29.607001,6.2250016z M7.5419919,4.07899C9.5769865,4.0789897 11.232982,5.890996 11.232982,8.1180034 11.232982,10.346011 9.5769865,12.157017 7.5419919,12.157017 5.5069971,12.157017 3.8510013,10.346011 3.8510013,8.1180034 3.8510013,5.890996 5.5069971,4.0789897 7.5419919,4.07899z M29.336982,2.4460095L32.000003,6.0970113 27.117015,14.553006 27.117015,24.187009 10.043003,24.187009 10.043003,14.820004C10.13602,13.261014,11.281038,10.327023,14.97604,9.9529991L15.508998,9.8990135 18.872031,13.965024z M19.24898,2.0090016C17.799983,2.0090014 16.621985,3.3980026 16.621985,5.1050043 16.621985,6.8130054 17.799983,8.2020068 19.24898,8.2020068 20.697976,8.2020068 21.875974,6.8130054 21.875974,5.1050043 21.875974,3.3980026 20.697976,2.0090014 19.24898,2.0090016z M19.24898,0C21.804974,-2.3841858E-07 23.883969,2.2900017 23.883969,5.1050043 23.883969,7.9200063 21.804974,10.210008 19.24898,10.210008 16.692985,10.210008 14.613989,7.9200063 14.613989,5.1050043 14.613989,2.2900017 16.692985,-2.3841858E-07 19.24898,0z" />
  </g>
</svg>